<?xml version="1.0" standalone="no"?>
<!DOCTYPE svg PUBLIC "-//W3C//DTD SVG 20010904//EN"
 "http://www.w3.org/TR/2001/REC-SVG-20010904/DTD/svg10.dtd">
<svg version="1.0" xmlns="http://www.w3.org/2000/svg"
 width="400.000000pt" height="401.000000pt" viewBox="0 0 400.000000 401.000000"
 preserveAspectRatio="xMidYMid meet">

<g transform="translate(0.000000,401.000000) scale(0.100000,-0.100000)"
fill="#030C11" stroke="none">
<path d="M1706 3994 c-285 -44 -609 -173 -850 -337 -101 -69 -345 -301 -439
-417 -165 -204 -294 -473 -375 -780 l-36 -135 0 -310 c-1 -290 1 -317 22 -415
84 -376 264 -714 522 -983 176 -184 348 -311 564 -417 322 -157 597 -211 1004
-196 194 7 281 21 445 71 336 102 593 253 840 494 269 262 457 592 552 970 36
147 45 234 45 459 0 242 -10 335 -51 492 -198 747 -752 1291 -1504 1476 -169
41 -558 56 -739 28z m453 -234 c373 -29 725 -181 1015 -440 282 -252 497 -625
563 -980 25 -136 25 -534 0 -670 -26 -134 -77 -283 -154 -442 l-66 -137 -51
46 c-135 122 -372 248 -707 378 l-136 52 -98 -78 c-104 -83 -234 -156 -324
-183 -76 -22 -326 -22 -402 0 -90 27 -220 100 -324 183 l-98 78 -137 -52
c-308 -118 -549 -245 -685 -362 l-73 -62 -50 105 c-189 388 -242 771 -162
1165 31 151 74 271 155 434 94 189 191 320 358 482 238 230 508 376 837 453
176 41 303 48 539 30z"/>
<path d="M1865 3296 c-242 -48 -444 -202 -560 -427 -135 -261 -123 -583 32
-894 64 -128 133 -222 227 -312 142 -136 276 -197 436 -197 163 -1 297 62 446
209 101 100 156 177 219 304 115 233 152 502 99 716 -22 88 -95 231 -159 313
-100 128 -248 228 -405 272 -97 27 -244 34 -335 16z"/>
</g>
</svg>
