<?xml version="1.0" standalone="no"?>
<!DOCTYPE svg PUBLIC "-//W3C//DTD SVG 20010904//EN"
 "http://www.w3.org/TR/2001/REC-SVG-20010904/DTD/svg10.dtd">
<svg version="1.0" xmlns="http://www.w3.org/2000/svg"
 width="400.000000pt" height="430.000000pt" viewBox="0 0 400.000000 430.000000"
 preserveAspectRatio="xMidYMid meet">

<g transform="translate(0.000000,430.000000) scale(0.100000,-0.100000)"
fill="#030C11" stroke="none">
<path d="M1830 4290 c-375 -35 -741 -181 -956 -382 -217 -203 -281 -454 -176
-690 95 -216 357 -420 672 -524 l80 -27 2 -187 3 -188 160 155 160 154 155 -6
c622 -24 1172 185 1404 534 130 195 130 433 0 633 -164 255 -500 436 -949 513
-109 18 -424 27 -555 15z"/>
<path d="M3525 2988 c-17 -28 -68 -90 -115 -138 -180 -185 -393 -306 -705
-403 -110 -34 -422 -87 -514 -87 -17 0 -31 -4 -31 -9 0 -14 85 -88 144 -126
131 -84 314 -145 482 -161 l69 -6 103 -101 102 -102 0 103 c0 101 0 102 24
102 97 0 327 61 441 118 389 192 452 555 138 788 -108 81 -103 80 -138 22z"/>
<path d="M989 2230 c-214 -54 -389 -224 -445 -435 -21 -77 -21 -222 0 -300 46
-171 153 -303 316 -386 39 -20 77 -45 85 -55 22 -29 18 -75 -9 -109 l-24 -30
-224 -6 c-122 -3 -238 -11 -256 -17 -122 -40 -226 -150 -275 -291 -18 -48 -21
-90 -25 -308 l-4 -253 1001 0 1001 0 0 231 c0 248 -8 306 -55 399 -54 106
-171 200 -283 226 -37 9 -124 14 -250 14 l-194 0 -29 29 c-54 54 -32 128 48
166 105 49 204 137 266 236 57 89 80 169 85 289 3 96 1 113 -26 192 -16 48
-45 113 -63 144 -63 104 -185 199 -319 249 -52 20 -264 29 -321 15z"/>
<path d="M2958 1705 c-130 -36 -236 -123 -295 -243 -35 -69 -38 -83 -41 -178
-3 -78 0 -114 13 -154 42 -127 117 -214 235 -273 62 -32 65 -35 68 -74 5 -64
-5 -67 -207 -73 -156 -5 -181 -8 -218 -28 -77 -40 -134 -112 -166 -206 -14
-40 -17 -89 -17 -243 l0 -193 765 0 765 0 0 173 c0 202 -11 256 -68 337 -49
68 -142 134 -212 149 -28 6 -115 11 -193 11 -160 0 -187 9 -187 60 0 47 9 58
73 92 135 72 227 197 247 338 12 81 6 135 -26 226 -73 209 -322 338 -536 279z"/>
</g>
</svg>
