<?xml version="1.0" standalone="no"?>
<!DOCTYPE svg PUBLIC "-//W3C//DTD SVG 20010904//EN"
 "http://www.w3.org/TR/2001/REC-SVG-20010904/DTD/svg10.dtd">
<svg version="1.0" xmlns="http://www.w3.org/2000/svg"
 width="400.000000pt" height="400.000000pt" viewBox="0 0 400.000000 400.000000"
 preserveAspectRatio="xMidYMid meet">

<g transform="translate(0.000000,400.000000) scale(0.100000,-0.100000)"
fill="#030C11" stroke="none">
<path d="M2791 2723 l-512 -1038 -29 -315 c-65 -711 -66 -730 -41 -730 8 0
556 497 704 640 l67 65 510 1034 c281 569 510 1037 510 1041 0 7 -674 340
-688 340 -5 0 -239 -467 -521 -1037z m549 587 c33 -17 60 -33 60 -36 0 -6
-820 -1675 -827 -1684 -4 -5 -19 13 -72 86 l-30 41 340 689 c188 379 367 744
399 812 32 67 61 122 65 122 3 0 32 -14 65 -30z m286 -143 l61 -32 -401 -812
-400 -813 -83 0 -82 0 285 578 c157 317 344 697 416 845 72 147 134 267 137
267 3 -1 33 -15 67 -33z m-1148 -1717 l68 -95 142 4 c116 3 142 1 142 -10 0
-15 -453 -402 -477 -407 -13 -3 -14 19 -8 165 19 460 24 499 51 457 8 -10 44
-62 82 -114z"/>
<path d="M90 3481 c-19 -10 -44 -34 -55 -52 -20 -34 -20 -54 -23 -1627 -1
-1036 1 -1607 8 -1631 5 -20 24 -50 40 -66 l31 -30 1167 -3 c1157 -2 1167 -2
1200 18 59 36 63 59 60 354 l-3 263 -133 -120 -132 -121 0 -63 0 -63 -980 0
-980 0 0 1445 0 1445 670 0 670 0 2 -312 3 -313 308 -3 307 -2 1 -293 0 -292
135 274 c129 263 134 277 134 337 0 34 -5 75 -11 91 -15 42 -715 741 -764 764
-38 18 -79 19 -830 19 -752 0 -792 -1 -825 -19z"/>
<path d="M512 2277 c-28 -30 -29 -80 -2 -107 20 -20 33 -20 759 -20 l740 0 20
26 c28 35 26 69 -4 99 l-24 25 -734 0 -734 0 -21 -23z"/>
<path d="M516 1789 c-33 -26 -36 -79 -6 -109 20 -20 33 -20 759 -20 l740 0 20
26 c28 35 26 69 -4 99 l-24 25 -729 0 c-723 0 -730 0 -756 -21z"/>
<path d="M516 1299 c-34 -27 -37 -86 -5 -115 20 -18 49 -19 743 -21 564 -2
726 0 746 10 34 17 55 57 46 90 -14 58 2 57 -784 57 -713 0 -720 0 -746 -21z"/>
<path d="M540 823 c-53 -19 -69 -93 -29 -129 20 -18 49 -19 743 -22 509 -2
729 1 748 9 57 23 58 112 2 138 -18 8 -228 11 -737 10 -392 0 -719 -3 -727 -6z"/>
</g>
</svg>
